<svg id="Layer_1" data-name="Layer 1" xmlns="http://www.w3.org/2000/svg" viewBox="0 0 28.19 21.31"><defs><style>.cls-1{fill:#00c3a4;}</style></defs><title>comma</title><path class="cls-1" d="M77.81,57.43v1.35q-6,3.47-7.4,8.8a5.14,5.14,0,0,1,2.77-1,4.4,4.4,0,0,1,3.5,1.69,6.1,6.1,0,0,1,1.43,4.12,6,6,0,0,1-1.88,4.52,6.36,6.36,0,0,1-4.62,1.83A5.64,5.64,0,0,1,67,76.42a9,9,0,0,1-1.85-5.79,12.29,12.29,0,0,1,3.72-8.75A14.22,14.22,0,0,1,77.81,57.43Z" transform="translate(-65.17 -57.43)"/><path class="cls-1" d="M93.07,57.43v1.35q-6,3.47-7.41,8.8a5.19,5.19,0,0,1,2.79-1,4.41,4.41,0,0,1,3.49,1.69,6.15,6.15,0,0,1,1.43,4.12,6.07,6.07,0,0,1-1.87,4.52,6.36,6.36,0,0,1-4.62,1.83,5.63,5.63,0,0,1-4.6-2.32,9.09,9.09,0,0,1-1.83-5.79,12.31,12.31,0,0,1,3.7-8.75A14.19,14.19,0,0,1,93.07,57.43Z" transform="translate(-65.17 -57.43)"/></svg>