<svg width="587" height="1024" viewBox="0 0 587 1024" fill="none" xmlns="http://www.w3.org/2000/svg">
<path d="M447.844 207.832C442.494 223.486 435.458 238.809 424.86 251.856C413.683 265.629 399.404 276.895 384.666 286.907C370.473 296.54 355.974 306.602 339.617 312.49C324.606 317.901 308.829 320.837 293.188 324.004C259.009 330.931 224.285 341.175 195.694 361.232C180.172 372.118 167.24 385.347 158.244 401.825C149.401 418.023 143.574 435.689 137.56 452.992C125.479 487.779 109.668 521.824 84.7237 549.848C71.0419 565.221 69.9344 574.903 52.6576 586.384C45.314 591.266 25.1236 598.886 17.729 603.703C17.729 603.703 -30.9738 674.208 33.0635 715.866C97.1008 757.524 71.1626 828.935 84.7237 795.865C81.013 874.801 158.585 795.865 243.487 853.596C328.389 911.327 338.476 911.925 384.666 920.399C442.106 933.943 416.136 938.544 484.579 964.11C553.022 989.677 538.341 1010.73 593.671 1006.26C649.86 1024.58 559.309 1024.55 608.107 1016.89C637.909 1023.76 656.904 1009.23 608.107 1016.89C659.044 1049.96 595.96 959.848 591.92 907.204V603.703V0C564.063 8.2803 542.39 24.445 521.024 43.0344C496.506 64.362 480.933 91.8255 471.136 122.027C462.003 150.266 457.454 179.709 447.844 207.832Z" fill="url(#paint0_linear)"/>
<defs>
<linearGradient id="paint0_linear" x1="24.6168" y1="278.759" x2="600.416" y2="278.759" gradientUnits="userSpaceOnUse">
<stop stop-color="#BA68C8"/>
<stop offset="0.927083" stop-color="#00A99D"/>
</linearGradient>
</defs>
</svg>
