<svg width="650" height="673" viewBox="0 0 650 673" fill="none" xmlns="http://www.w3.org/2000/svg">
<path d="M656.987 45.0464C623.916 85.9881 605.598 136.853 588.237 186.761C570.877 236.67 553.398 287.694 521.546 329.632C489.706 371.57 440.283 403.585 388.201 400.051C286.184 393.117 219.256 279.006 123.961 248.772C93.2882 239.034 57.4134 240.283 31.8372 260.01C-3.94588 287.601 -8.1256 343.687 12.1048 384.389C32.3351 425.092 71.0532 452.922 110.544 474.695C140.877 491.419 172.572 505.594 205.197 517.044C246.313 531.458 290.875 542.696 321.679 573.847C360.725 613.341 352.719 644.253 331.283 673H766V0H706.082C687.699 12.5269 671.046 27.6442 656.987 45.0464Z" fill="url(#paint0_linear)"/>
<defs>
<linearGradient id="paint0_linear" x1="383" y1="0" x2="383" y2="673" gradientUnits="userSpaceOnUse">
<stop stop-color="#BA68C8"/>
<stop offset="1" stop-color="#00A99D"/>
</linearGradient>
</defs>
</svg>
