<svg width="845" height="728" viewBox="0 0 845 728" fill="none" xmlns="http://www.w3.org/2000/svg">
<path d="M613.043 180.324C515.448 172.234 422.42 210.999 329.489 237.239C297.557 246.261 263.675 253.944 230.448 249.183C177.315 241.57 137.489 203.782 112.503 163.84C87.5159 123.899 72.677 79.6734 44.1964 41.4083C32.6009 25.8205 17.609 10.9429 0 0V494.222V663.42C53.278 746.984 104.642 740.866 210.982 693.655C326.968 762.693 411.763 693.655 411.763 663.42C411.763 633.185 712.604 679.708 831.756 494.222C851.105 428.297 851.884 358.006 816.29 297.844C778.149 233.409 698.623 187.414 613.043 180.324Z" fill="url(#paint0_linear)"/>
<defs>
<linearGradient id="paint0_linear" x1="422.5" y1="0" x2="422.5" y2="728" gradientUnits="userSpaceOnUse">
<stop stop-color="#BA68C8"/>
<stop offset="1" stop-color="#00A99D"/>
</linearGradient>
</defs>
</svg>
