<svg width="368" height="441" viewBox="0 0 368 441" fill="none" xmlns="http://www.w3.org/2000/svg">
<path d="M355.499 190.729C323.921 200.099 294.014 171.361 275.22 138.359C256.427 105.356 243.286 66.0298 219.298 39.3845C168.336 -17.1607 79.0921 9.85813 40.4277 85.1124C1.76124 160.395 11.9858 265.823 55.5123 332.116C99.017 398.408 169.632 427.837 237.885 423.423C297.858 419.555 358.494 390.573 403.26 336.309C448.026 282.045 475.214 201.572 469.202 124.134C465.681 78.7714 433.35 17.6473 412.145 73.9662C395.709 117.736 404.636 176.157 355.499 190.729Z" fill="url(#paint0_linear)"/>
<defs>
<linearGradient id="paint0_linear" x1="254.321" y1="16.318" x2="224.683" y2="424.407" gradientUnits="userSpaceOnUse">
<stop stop-color="#BA68C8"/>
<stop offset="1" stop-color="#00A99D"/>
</linearGradient>
</defs>
</svg>
