<svg width="268" height="429" viewBox="0 0 268 429" fill="none" xmlns="http://www.w3.org/2000/svg">
<path d="M294.39 -3.05176e-05C291.22 2.76997 287.79 5.29997 283.86 7.46997C274.46 12.65 262.73 12.65 253.33 18.31C226.11 34.69 226.25 64.18 215.99 90.67C199.86 132.31 171.78 124.65 134.21 128.42C105.16 131.33 71.74 145.83 71.5 180.13C71.35 202.51 96.44 217.33 77.07 233.76C66.19 242.99 46.85 237.26 34.37 241.41C17.12 247.14 7.59 257.72 0 270.26C0 270.26 0 303.5 24 310.5C48 317.5 39.62 338.5 46.31 334C53 329.5 67.13 354.5 77.07 341.5C87.01 328.5 96.78 372.5 96.78 372.5C96.78 372.5 124.278 380.218 128.02 377.5C131.762 374.782 145.782 425.181 157.5 402C184.085 422.651 192.971 431 186.501 412C180.031 393 200.11 427.5 200.11 412C200.11 396.5 237.15 419.5 237.15 419.5C265.926 435.948 277.518 429.826 294.37 406V269.66L294.39 -3.05176e-05ZM229.82 70.81C231.13 67.72 231.93 64.45 233.24 61.35C234.44 58.52 235.76 55.74 236.9 52.88C239.17 47.17 241.56 41.74 245.33 36.84C250.29 30.39 257.72 21.6 266.72 22.55C267.2 22.6 267.63 23.17 267.64 23.63C267.65 27.15 264.33 29.59 261.95 31.71C257.92 35.29 253.96 39.07 250.22 42.95C245.94 47.4 242.39 52.16 240.16 57.95C239.14 60.59 238.34 63.35 237.15 65.92C235.95 68.51 234.16 70.4 232.14 72.4C231.62 72.91 230.95 72.81 230.51 72.44C229.96 72.19 229.51 71.54 229.82 70.81ZM163.47 139.4C165.39 136.68 170.11 135.73 173.02 137.25C173.97 137.74 174.79 138.58 175.31 139.57C176.8 141.35 176.45 144.03 174.54 145.42C172.53 146.89 169.27 147.45 166.89 146.71C163.79 145.74 161.27 142.51 163.47 139.4ZM84.46 185.14C81.42 178.84 82.79 171.36 87.01 165.97C89.8 162.4 93.46 159.16 96.78 156.07C99.74 153.32 102.89 150.76 106.29 148.56C112.87 144.3 120.27 141.34 128.02 140.09C136.12 138.78 144.37 139.64 152.49 140.2C153.3 140.26 153.95 140.57 154.44 141.03C157.31 142.58 156.65 146.29 154.46 148.23C151.71 150.66 147.87 150.73 144.54 151.85C140.73 153.13 137.25 155.41 134.08 157.86C126.86 163.44 121.01 170.7 115.03 177.53C110.58 182.61 105.81 189.24 99.26 191.75C93.22 194.05 87.16 190.74 84.46 185.14ZM63.99 217.13C59.11 222.01 51.19 222.01 46.31 217.13C41.43 212.25 41.43 204.33 46.31 199.45C51.19 194.57 59.11 194.57 63.99 199.45C68.87 204.33 68.87 212.25 63.99 217.13ZM191.97 101.87C181.23 112.61 163.82 112.61 153.08 101.87C142.34 91.13 142.34 73.72 153.08 62.98C163.82 52.24 181.23 52.24 191.97 62.98C202.71 73.72 202.71 91.13 191.97 101.87ZM214.25 54.14C210.34 58.05 204.01 58.05 200.11 54.14C196.2 50.23 196.2 43.9 200.11 40C204.02 36.09 210.35 36.09 214.25 40C218.15 43.9 218.15 50.24 214.25 54.14Z" fill="url(#paint0_linear)"/>
<defs>
<linearGradient id="paint0_linear" x1="115.716" y1="80.554" x2="294.881" y2="259.719" gradientUnits="userSpaceOnUse">
<stop stop-color="#BA68C8"/>
<stop offset="1" stop-color="#00A99D"/>
</linearGradient>
</defs>
</svg>
