<svg width="490" height="835" viewBox="0 0 490 835" fill="none" xmlns="http://www.w3.org/2000/svg">
<path d="M-281.112 437.334C-274.043 395.116 -247.133 365.07 -223.391 338.578C-210.682 324.39 -198.667 310.972 -189.991 296.588C-170.399 264.084 -162.77 234.991 -155.395 206.846C-143.487 161.354 -131.159 114.31 -70.9726 64.2105C-10.3588 13.7703 47.0142 -4.76177 104.427 7.57002C160.733 19.6517 209.065 60.9953 244.86 95.6504C268.238 118.259 297.299 134.208 328.066 151.063C354.821 165.734 382.479 180.89 407.496 201.312C471.626 253.702 494.289 304.27 483.221 370.391C478.962 395.89 470.095 422.051 460.706 449.741C452.423 474.223 443.848 499.523 437.014 527.911C436.358 530.649 435.76 533.56 435.263 536.537C432.842 550.991 432.612 566.247 432.352 582.368C432.079 599.59 431.8 617.375 428.774 635.431C425.164 657.047 418.076 675.599 407.137 692.097C373.335 743.117 335.331 747.406 298.599 751.557C283.628 753.249 268.172 755.001 252.074 759.944C231.543 766.264 212.547 777.853 192.413 790.121C161.653 808.885 129.837 828.285 90.0879 829.809C13.5774 832.74 -28.2952 778.501 -53.1427 737.462C-61.1282 724.297 -67.3808 711.346 -73.4363 698.829C-86.0207 672.797 -96.889 650.328 -119.142 635.405C-125.791 630.943 -137.246 628.482 -148.318 626.111C-161.604 623.261 -175.353 620.298 -187.665 613.267C-232.259 587.829 -278.925 532.758 -282.714 467.077C-283.247 456.956 -282.712 446.955 -281.112 437.334Z" stroke="url(#paint0_linear)" stroke-miterlimit="10" stroke-dasharray="25 25"/>
<path d="M-58.6113 81.2712C-149.451 156.878 -119.29 219.157 -173.03 308.296C-203.642 359.092 -266.643 393.75 -262.52 465.724C-259.41 519.856 -221.461 569.47 -178.11 594.202C-157.858 605.753 -127.112 604.539 -108.384 617.089C-69.7477 643.001 -60.7127 685.16 -36.1826 725.698C-7.88724 772.417 28.6762 810.539 89.4203 808.211C148.67 805.952 191.197 756.175 246.555 739.155C304.505 721.343 349.56 741.685 390.73 679.595C423.465 630.206 405.081 574.11 417.5 522.528C449.216 390.674 518.579 319.216 395.258 218.488C343.665 176.351 277.999 156.838 231.343 111.667C148.354 31.3795 61.9036 -19.0335 -58.6113 81.2712Z" fill="url(#paint1_linear)"/>
<defs>
<linearGradient id="paint0_linear" x1="420.901" y1="194.454" x2="-216.675" y2="609.291" gradientUnits="userSpaceOnUse">
<stop stop-color="#BA68C8"/>
<stop offset="1" stop-color="#00A99D"/>
</linearGradient>
<linearGradient id="paint1_linear" x1="400.386" y1="209.773" x2="-202.462" y2="602.015" gradientUnits="userSpaceOnUse">
<stop stop-color="#BA68C8"/>
<stop offset="0.921875" stop-color="#4990AE"/>
<stop offset="1" stop-color="#00A99D"/>
</linearGradient>
</defs>
</svg>
