<svg width="655" height="667" viewBox="0 0 655 667" fill="none" xmlns="http://www.w3.org/2000/svg">
<path d="M5.76637 348.993C11.693 315.306 34.3191 291.343 54.2822 270.213C64.9681 258.897 75.07 248.195 82.3623 236.721C98.8305 210.792 105.235 187.579 111.427 165.123C121.423 128.826 131.773 91.2904 182.386 51.3401C233.359 11.1179 281.62 -3.64315 329.93 6.22537C377.309 15.8938 417.993 48.9094 448.125 76.5817C467.805 94.6344 492.264 107.376 518.157 120.842C540.675 132.562 563.952 144.67 585.009 160.978C638.99 202.817 658.082 243.181 648.802 295.941C645.231 316.287 637.783 337.16 629.897 359.252C622.94 378.784 615.737 398.97 610.002 421.62C609.451 423.805 608.95 426.128 608.533 428.503C606.503 440.036 606.316 452.211 606.105 465.075C605.884 478.818 605.659 493.01 603.121 507.418C600.094 524.666 594.14 539.467 584.944 552.627C556.53 593.325 524.557 596.729 493.655 600.024C481.06 601.367 468.057 602.757 454.516 606.694C437.245 611.728 421.268 620.967 404.334 630.747C378.464 645.706 351.705 661.172 318.263 662.369C253.893 664.671 218.637 621.367 197.712 588.606C190.987 578.097 185.72 567.759 180.619 557.768C170.019 536.987 160.864 519.052 142.135 507.133C136.538 503.569 126.9 501.599 117.583 499.702C106.403 497.421 94.8342 495.05 84.4726 489.433C46.9409 469.112 7.65204 425.143 4.43257 372.727C3.9792 364.65 4.42458 356.67 5.76637 348.993Z" stroke="url(#paint0_linear)" stroke-miterlimit="10" stroke-dasharray="25 25"/>
<path d="M192.794 64.9606C116.404 125.252 141.809 174.965 96.6381 246.072C70.9075 286.593 17.9188 314.219 21.4219 371.657C24.0649 414.856 56.0171 454.467 92.5025 474.224C109.547 483.452 135.414 482.498 151.177 492.521C183.696 513.218 191.318 546.866 211.976 579.227C235.804 616.522 266.585 646.961 317.691 645.133C367.539 643.359 403.295 603.658 449.862 590.102C498.609 575.916 536.526 592.171 571.134 542.643C598.652 503.246 583.157 458.472 593.581 417.316C620.202 312.111 678.526 255.12 574.721 174.679C531.294 141.029 476.036 125.426 436.761 89.3561C366.899 25.2466 294.141 -15.0249 192.794 64.9606Z" fill="url(#paint1_linear)"/>
<defs>
<linearGradient id="paint0_linear" x1="596.284" y1="155.512" x2="77.4588" y2="511.593" gradientUnits="userSpaceOnUse">
<stop stop-color="#BA68C8"/>
<stop offset="1" stop-color="#00A99D"/>
</linearGradient>
<linearGradient id="paint1_linear" x1="579.031" y1="167.727" x2="88.4654" y2="504.412" gradientUnits="userSpaceOnUse">
<stop stop-color="#BA68C8"/>
<stop offset="0.921875" stop-color="#4990AE"/>
<stop offset="1" stop-color="#00A99D"/>
</linearGradient>
</defs>
</svg>
