<svg width="447" height="558" viewBox="0 0 447 558" fill="none" xmlns="http://www.w3.org/2000/svg">
<path d="M-202.234 348.993C-196.307 315.306 -173.681 291.343 -153.718 270.213C-143.032 258.897 -132.93 248.195 -125.638 236.721C-109.169 210.792 -102.765 187.579 -96.573 165.123C-86.5767 128.826 -76.227 91.2904 -25.6138 51.3401C25.3589 11.1179 73.6205 -3.64315 121.93 6.22537C169.309 15.8938 209.993 48.9094 240.125 76.5817C259.805 94.6344 284.264 107.376 310.157 120.842C332.675 132.562 355.952 144.67 377.009 160.978C430.99 202.817 450.082 243.181 440.802 295.941C437.231 316.287 429.783 337.16 421.898 359.252C414.94 378.784 407.738 398.97 402.002 421.62C401.451 423.805 400.95 426.128 400.533 428.503C398.503 440.036 398.317 452.211 398.106 465.075C397.885 478.818 397.659 493.01 395.121 507.418C392.094 524.666 386.14 539.467 376.945 552.627C348.53 593.325 316.557 596.729 285.655 600.024C273.06 601.367 260.057 602.757 246.516 606.694C229.245 611.728 213.268 620.967 196.334 630.747C170.464 645.706 143.705 661.172 110.263 662.369C45.8927 664.671 10.6372 621.367 -10.2879 588.606C-17.0128 578.097 -22.2796 567.759 -27.3805 557.768C-37.9808 536.987 -47.1357 519.052 -65.865 507.133C-71.4619 503.569 -81.1001 501.599 -90.4166 499.702C-101.596 497.421 -113.166 495.05 -123.527 489.433C-161.059 469.112 -200.348 425.143 -203.567 372.727C-204.021 364.65 -203.575 356.67 -202.234 348.993Z" stroke="url(#paint0_linear)" stroke-miterlimit="10" stroke-dasharray="25 25"/>
<path d="M-15.2054 64.9606C-91.5961 125.252 -66.1909 174.965 -111.362 246.072C-137.092 286.593 -190.081 314.219 -186.578 371.657C-183.935 414.856 -151.983 454.467 -115.497 474.224C-98.4528 483.452 -72.5855 482.498 -56.8231 492.521C-24.3039 513.218 -16.6821 546.866 3.97581 579.227C27.8045 616.522 58.5854 646.961 109.691 645.133C159.54 643.359 195.295 603.658 241.862 590.102C290.61 575.916 328.526 592.171 363.134 542.643C390.652 503.246 375.158 458.472 385.582 417.316C412.202 312.111 470.526 255.12 366.721 174.679C323.294 141.029 268.036 125.426 228.761 89.3561C158.899 25.2466 86.1408 -15.0249 -15.2054 64.9606Z" fill="url(#paint1_linear)"/>
<defs>
<linearGradient id="paint0_linear" x1="388.285" y1="155.512" x2="-130.541" y2="511.593" gradientUnits="userSpaceOnUse">
<stop stop-color="#BA68C8"/>
<stop offset="1" stop-color="#00A99D"/>
</linearGradient>
<linearGradient id="paint1_linear" x1="371.032" y1="167.727" x2="-119.534" y2="504.412" gradientUnits="userSpaceOnUse">
<stop stop-color="#BA68C8"/>
<stop offset="0.921875" stop-color="#4990AE"/>
<stop offset="1" stop-color="#00A99D"/>
</linearGradient>
</defs>
</svg>
