<svg width="345" height="667" viewBox="0 0 345 667" fill="none" xmlns="http://www.w3.org/2000/svg">
<path d="M5.7665 348.993C11.6931 315.306 34.3192 291.343 54.2823 270.213C64.9683 258.897 75.0702 248.195 82.3624 236.721C98.8306 210.792 105.235 187.579 111.427 165.123C121.423 128.826 131.773 91.2904 182.386 51.3401C233.359 11.1179 281.62 -3.64315 329.93 6.22537C377.309 15.8938 417.993 48.9094 448.125 76.5817C467.805 94.6344 492.264 107.376 518.157 120.842C540.675 132.562 563.952 144.67 585.009 160.978C638.99 202.817 658.082 243.181 648.802 295.941C645.231 316.287 637.783 337.16 629.898 359.252C622.94 378.784 615.738 398.97 610.002 421.62C609.451 423.805 608.95 426.128 608.533 428.503C606.503 440.036 606.317 452.211 606.106 465.075C605.885 478.818 605.659 493.01 603.121 507.418C600.094 524.666 594.14 539.467 584.945 552.627C556.53 593.325 524.557 596.729 493.655 600.024C481.06 601.367 468.057 602.757 454.516 606.694C437.245 611.728 421.268 620.967 404.334 630.747C378.464 645.706 351.705 661.172 318.263 662.369C253.893 664.671 218.637 621.367 197.712 588.606C190.987 578.097 185.72 567.759 180.619 557.768C170.019 536.987 160.864 519.052 142.135 507.133C136.538 503.569 126.9 501.599 117.583 499.702C106.404 497.421 94.8344 495.05 84.4727 489.433C46.941 469.112 7.65216 425.143 4.43269 372.727C3.97933 364.65 4.4247 356.67 5.7665 348.993Z" stroke="url(#paint0_linear)" stroke-miterlimit="10" stroke-dasharray="25 25"/>
<path d="M206.713 49C130.322 109.291 155.728 159.004 110.557 230.112C84.8264 270.632 31.8376 298.259 35.3407 355.697C37.9837 398.896 69.9359 438.506 106.421 458.264C123.466 467.491 149.333 466.537 165.095 476.561C197.615 497.257 205.236 530.905 225.894 563.267C249.723 600.562 280.504 631.001 331.61 629.173C381.458 627.399 417.213 587.697 463.781 574.142C512.528 559.955 550.445 576.21 585.053 526.682C612.571 487.285 597.076 442.512 607.5 401.355C634.12 296.15 692.444 239.159 588.64 158.718C545.212 125.068 486 33.5001 486 33.5001C486 33.5001 308.059 -30.9855 206.713 49Z" fill="url(#paint1_linear)"/>
<defs>
<linearGradient id="paint0_linear" x1="596.285" y1="155.512" x2="77.4589" y2="511.593" gradientUnits="userSpaceOnUse">
<stop stop-color="#BA68C8"/>
<stop offset="1" stop-color="#00A99D"/>
</linearGradient>
<linearGradient id="paint1_linear" x1="579.031" y1="167.727" x2="88.4656" y2="504.412" gradientUnits="userSpaceOnUse">
<stop stop-color="#BA68C8"/>
<stop offset="0.921875" stop-color="#4990AE"/>
<stop offset="1" stop-color="#00A99D"/>
</linearGradient>
</defs>
</svg>
